<mxfile host="app.diagrams.net" modified="2024-02-13T06:36:32.995Z" agent="Mozilla/5.0 (Windows NT 10.0; Win64; x64) AppleWebKit/537.36 (KHTML, like Gecko) Chrome/121.0.0.0 Safari/537.36" etag="YAd-BGfrglLCEIc6kE4h" version="23.1.2" type="device">
  <diagram name="Page-1" id="b520641d-4fe3-3701-9064-5fc419738815">
    <mxGraphModel dx="695" dy="577" grid="1" gridSize="10" guides="1" tooltips="1" connect="1" arrows="1" fold="1" page="0" pageScale="1" pageWidth="1100" pageHeight="850" background="none" math="0" shadow="0">
      <root>
        <mxCell id="0" />
        <mxCell id="1" parent="0" />
        <mxCell id="lDSgatOu9usaqV24lOmU-206" value="&lt;font style=&quot;font-size: 7px;&quot;&gt;0:N&lt;/font&gt;" style="text;html=1;strokeColor=none;fillColor=none;align=center;verticalAlign=middle;whiteSpace=wrap;rounded=0;" parent="1" vertex="1">
          <mxGeometry x="718.03" y="200" width="20" height="10" as="geometry" />
        </mxCell>
        <mxCell id="lDSgatOu9usaqV24lOmU-209" style="edgeStyle=orthogonalEdgeStyle;rounded=0;orthogonalLoop=1;jettySize=auto;html=1;exitX=1;exitY=0.5;exitDx=0;exitDy=0;exitPerimeter=0;endArrow=classicThin;endFill=1;entryX=0.407;entryY=0.998;entryDx=0;entryDy=0;entryPerimeter=0;" parent="1" source="lDSgatOu9usaqV24lOmU-208" target="lDSgatOu9usaqV24lOmU-195" edge="1">
          <mxGeometry relative="1" as="geometry">
            <mxPoint x="670" y="310" as="targetPoint" />
            <Array as="points" />
          </mxGeometry>
        </mxCell>
        <mxCell id="lDSgatOu9usaqV24lOmU-208" value="D" style="shape=or;whiteSpace=wrap;html=1;direction=north;rounded=0;" parent="1" vertex="1">
          <mxGeometry x="635.0100000000003" y="289.87" width="50" height="30" as="geometry" />
        </mxCell>
        <mxCell id="lDSgatOu9usaqV24lOmU-213" value="" style="endArrow=none;html=1;rounded=0;edgeStyle=orthogonalEdgeStyle;exitX=0.5;exitY=1;exitDx=0;exitDy=0;entryX=0.5;entryY=0;entryDx=0;entryDy=0;" parent="1" source="lDSgatOu9usaqV24lOmU-214" target="lDSgatOu9usaqV24lOmU-7" edge="1">
          <mxGeometry width="50" height="50" relative="1" as="geometry">
            <mxPoint x="652.53" y="912" as="sourcePoint" />
            <mxPoint x="460.53" y="250" as="targetPoint" />
            <Array as="points" />
          </mxGeometry>
        </mxCell>
        <mxCell id="lDSgatOu9usaqV24lOmU-219" value="" style="endArrow=none;html=1;rounded=0;edgeStyle=orthogonalEdgeStyle;entryX=1;entryY=0.5;entryDx=0;entryDy=0;exitX=0.003;exitY=0.391;exitDx=0;exitDy=0;exitPerimeter=0;" parent="1" source="lDSgatOu9usaqV24lOmU-191" target="lDSgatOu9usaqV24lOmU-214" edge="1">
          <mxGeometry width="50" height="50" relative="1" as="geometry">
            <mxPoint x="590.53" y="210" as="sourcePoint" />
            <mxPoint x="570.53" y="230" as="targetPoint" />
            <Array as="points">
              <mxPoint x="571" y="222" />
            </Array>
          </mxGeometry>
        </mxCell>
        <mxCell id="lDSgatOu9usaqV24lOmU-221" value="&lt;font style=&quot;font-size: 7px;&quot;&gt;1:N&lt;/font&gt;" style="text;html=1;strokeColor=none;fillColor=none;align=center;verticalAlign=middle;whiteSpace=wrap;rounded=0;" parent="1" vertex="1">
          <mxGeometry x="599" y="210" width="20" height="10" as="geometry" />
        </mxCell>
        <mxCell id="lDSgatOu9usaqV24lOmU-223" value="SEED" style="swimlane;fontStyle=0;childLayout=stackLayout;horizontal=1;startSize=26;fillColor=none;horizontalStack=0;resizeParent=1;resizeParentMax=0;resizeLast=0;collapsible=0;marginBottom=0;whiteSpace=wrap;html=1;rounded=0;" parent="1" vertex="1">
          <mxGeometry x="640.02" y="389" width="80" height="130" as="geometry">
            <mxRectangle x="280" y="893.5" width="70" height="30" as="alternateBounds" />
          </mxGeometry>
        </mxCell>
        <mxCell id="lDSgatOu9usaqV24lOmU-224" value="• [seed_type]" style="text;strokeColor=none;fillColor=none;align=left;verticalAlign=top;spacingLeft=4;spacingRight=4;overflow=hidden;rotatable=0;points=[[0,0.5],[1,0.5]];portConstraint=eastwest;whiteSpace=wrap;html=1;fontSize=10;rounded=0;" parent="lDSgatOu9usaqV24lOmU-223" vertex="1">
          <mxGeometry y="26" width="80" height="26" as="geometry" />
        </mxCell>
        <mxCell id="lDSgatOu9usaqV24lOmU-226" value="• size" style="text;strokeColor=none;fillColor=none;align=left;verticalAlign=top;spacingLeft=4;spacingRight=4;overflow=hidden;rotatable=0;points=[[0,0.5],[1,0.5]];portConstraint=eastwest;whiteSpace=wrap;html=1;fontSize=10;rounded=0;" parent="lDSgatOu9usaqV24lOmU-223" vertex="1">
          <mxGeometry y="52" width="80" height="26" as="geometry" />
        </mxCell>
        <mxCell id="lDSgatOu9usaqV24lOmU-227" value="• season" style="text;strokeColor=none;fillColor=none;align=left;verticalAlign=top;spacingLeft=4;spacingRight=4;overflow=hidden;rotatable=0;points=[[0,0.5],[1,0.5]];portConstraint=eastwest;whiteSpace=wrap;html=1;fontSize=10;rounded=0;" parent="lDSgatOu9usaqV24lOmU-223" vertex="1">
          <mxGeometry y="78" width="80" height="26" as="geometry" />
        </mxCell>
        <mxCell id="lDSgatOu9usaqV24lOmU-229" value="• sun_amount" style="text;strokeColor=none;fillColor=none;align=left;verticalAlign=top;spacingLeft=4;spacingRight=4;overflow=hidden;rotatable=0;points=[[0,0.5],[1,0.5]];portConstraint=eastwest;whiteSpace=wrap;html=1;fontSize=10;rounded=0;" parent="lDSgatOu9usaqV24lOmU-223" vertex="1">
          <mxGeometry y="104" width="80" height="26" as="geometry" />
        </mxCell>
        <mxCell id="lDSgatOu9usaqV24lOmU-230" value="GARDEN" style="swimlane;fontStyle=0;childLayout=stackLayout;horizontal=1;startSize=26;fillColor=none;horizontalStack=0;resizeParent=1;resizeParentMax=0;resizeLast=0;collapsible=0;marginBottom=0;whiteSpace=wrap;html=1;rounded=0;" parent="1" vertex="1">
          <mxGeometry x="458" y="440" width="70" height="78" as="geometry" />
        </mxCell>
        <mxCell id="lDSgatOu9usaqV24lOmU-231" value="• small_count" style="text;strokeColor=none;fillColor=none;align=left;verticalAlign=top;spacingLeft=4;spacingRight=4;overflow=hidden;rotatable=0;points=[[0,0.5],[1,0.5]];portConstraint=eastwest;whiteSpace=wrap;html=1;fontSize=10;rounded=0;" parent="lDSgatOu9usaqV24lOmU-230" vertex="1">
          <mxGeometry y="26" width="70" height="26" as="geometry" />
        </mxCell>
        <mxCell id="lDSgatOu9usaqV24lOmU-232" value="• large_count" style="text;strokeColor=none;fillColor=none;align=left;verticalAlign=top;spacingLeft=4;spacingRight=4;overflow=hidden;rotatable=0;points=[[0,0.5],[1,0.5]];portConstraint=eastwest;whiteSpace=wrap;html=1;fontSize=10;rounded=0;" parent="lDSgatOu9usaqV24lOmU-230" vertex="1">
          <mxGeometry y="52" width="70" height="26" as="geometry" />
        </mxCell>
        <mxCell id="lDSgatOu9usaqV24lOmU-240" value="" style="endArrow=none;html=1;rounded=0;edgeStyle=orthogonalEdgeStyle;exitX=1;exitY=0.5;exitDx=0;exitDy=0;entryX=0.002;entryY=0.283;entryDx=0;entryDy=0;entryPerimeter=0;" parent="1" source="lDSgatOu9usaqV24lOmU-236" target="lDSgatOu9usaqV24lOmU-229" edge="1">
          <mxGeometry width="50" height="50" relative="1" as="geometry">
            <mxPoint x="409.94" y="1477.5" as="sourcePoint" />
            <mxPoint x="660" y="510" as="targetPoint" />
            <Array as="points">
              <mxPoint x="620" y="500" />
              <mxPoint x="620" y="500" />
            </Array>
          </mxGeometry>
        </mxCell>
        <mxCell id="lDSgatOu9usaqV24lOmU-241" value="" style="endArrow=none;html=1;rounded=0;edgeStyle=orthogonalEdgeStyle;exitX=0.999;exitY=0.306;exitDx=0;exitDy=0;exitPerimeter=0;entryX=-0.002;entryY=0.48;entryDx=0;entryDy=0;entryPerimeter=0;" parent="1" source="lDSgatOu9usaqV24lOmU-232" target="lDSgatOu9usaqV24lOmU-236" edge="1">
          <mxGeometry width="50" height="50" relative="1" as="geometry">
            <mxPoint x="590" y="490" as="sourcePoint" />
            <mxPoint x="590" y="510" as="targetPoint" />
            <Array as="points">
              <mxPoint x="590" y="500" />
            </Array>
          </mxGeometry>
        </mxCell>
        <mxCell id="lDSgatOu9usaqV24lOmU-242" value="&lt;font style=&quot;font-size: 7px;&quot;&gt;0:N&lt;/font&gt;" style="text;html=1;strokeColor=none;fillColor=none;align=center;verticalAlign=middle;whiteSpace=wrap;rounded=0;" parent="1" vertex="1">
          <mxGeometry x="526" y="488" width="20" height="10" as="geometry" />
        </mxCell>
        <mxCell id="lDSgatOu9usaqV24lOmU-243" value="&lt;font style=&quot;font-size: 7px;&quot;&gt;1:8&lt;/font&gt;" style="text;html=1;strokeColor=none;fillColor=none;align=center;verticalAlign=middle;whiteSpace=wrap;rounded=0;" parent="1" vertex="1">
          <mxGeometry x="622" y="489" width="20" height="10" as="geometry" />
        </mxCell>
        <mxCell id="lDSgatOu9usaqV24lOmU-245" value="" style="endArrow=none;html=1;rounded=0;edgeStyle=orthogonalEdgeStyle;exitX=0;exitY=0.5;exitDx=0;exitDy=0;exitPerimeter=0;entryX=0.25;entryY=0;entryDx=0;entryDy=0;" parent="1" source="lDSgatOu9usaqV24lOmU-208" target="lDSgatOu9usaqV24lOmU-223" edge="1">
          <mxGeometry width="50" height="50" relative="1" as="geometry">
            <mxPoint x="359.94" y="870.87" as="sourcePoint" />
            <mxPoint x="660" y="380" as="targetPoint" />
            <Array as="points" />
          </mxGeometry>
        </mxCell>
        <mxCell id="lDSgatOu9usaqV24lOmU-246" value="" style="endArrow=none;html=1;rounded=0;edgeStyle=orthogonalEdgeStyle;exitX=0;exitY=0.151;exitDx=0;exitDy=0;exitPerimeter=0;entryX=0.996;entryY=0.128;entryDx=0;entryDy=0;entryPerimeter=0;" parent="1" source="lDSgatOu9usaqV24lOmU-208" target="lDSgatOu9usaqV24lOmU-230" edge="1">
          <mxGeometry width="50" height="50" relative="1" as="geometry">
            <mxPoint x="630" y="350" as="sourcePoint" />
            <mxPoint x="560" y="460" as="targetPoint" />
            <Array as="points">
              <mxPoint x="643" y="340" />
              <mxPoint x="610" y="340" />
              <mxPoint x="610" y="450" />
            </Array>
          </mxGeometry>
        </mxCell>
        <mxCell id="EjHgjBkM1AAD6GTBpVpu-10" value="" style="group;rounded=0;" parent="1" vertex="1" connectable="0">
          <mxGeometry x="619" y="159.5" width="100.03" height="104" as="geometry" />
        </mxCell>
        <mxCell id="lDSgatOu9usaqV24lOmU-188" value="PRODUCT" style="swimlane;fontStyle=0;childLayout=stackLayout;horizontal=1;startSize=26;fillColor=none;horizontalStack=0;resizeParent=1;resizeParentMax=0;resizeLast=0;collapsible=0;marginBottom=0;whiteSpace=wrap;html=1;rounded=0;" parent="EjHgjBkM1AAD6GTBpVpu-10" vertex="1">
          <mxGeometry width="100.02999999999996" height="104" as="geometry">
            <mxRectangle width="100" height="30" as="alternateBounds" />
          </mxGeometry>
        </mxCell>
        <mxCell id="lDSgatOu9usaqV24lOmU-190" value="• name" style="text;strokeColor=none;fillColor=none;align=left;verticalAlign=top;spacingLeft=4;spacingRight=4;overflow=hidden;rotatable=0;points=[[0,0.5],[1,0.5]];portConstraint=eastwest;whiteSpace=wrap;html=1;fontSize=10;rounded=0;" parent="lDSgatOu9usaqV24lOmU-188" vertex="1">
          <mxGeometry y="26" width="100.02999999999996" height="26" as="geometry" />
        </mxCell>
        <mxCell id="lDSgatOu9usaqV24lOmU-191" value="• price" style="text;strokeColor=none;fillColor=none;align=left;verticalAlign=top;spacingLeft=4;spacingRight=4;overflow=hidden;rotatable=0;points=[[0,0.5],[1,0.5]];portConstraint=eastwest;whiteSpace=wrap;html=1;fontSize=10;rounded=0;" parent="lDSgatOu9usaqV24lOmU-188" vertex="1">
          <mxGeometry y="52" width="100.02999999999996" height="26" as="geometry" />
        </mxCell>
        <mxCell id="lDSgatOu9usaqV24lOmU-195" value="• discount_amount" style="text;strokeColor=none;fillColor=none;align=left;verticalAlign=top;spacingLeft=4;spacingRight=4;overflow=hidden;rotatable=0;points=[[0,0.5],[1,0.5]];portConstraint=eastwest;whiteSpace=wrap;html=1;fontSize=10;rounded=0;" parent="lDSgatOu9usaqV24lOmU-188" vertex="1">
          <mxGeometry y="78" width="100.02999999999996" height="26" as="geometry" />
        </mxCell>
        <mxCell id="lDSgatOu9usaqV24lOmU-200" value="" style="endArrow=none;html=1;rounded=0;edgeStyle=orthogonalEdgeStyle;entryX=0.997;entryY=0.561;entryDx=0;entryDy=0;entryPerimeter=0;exitX=1.001;exitY=0.098;exitDx=0;exitDy=0;exitPerimeter=0;" parent="lDSgatOu9usaqV24lOmU-188" source="lDSgatOu9usaqV24lOmU-188" target="lDSgatOu9usaqV24lOmU-190" edge="1">
          <mxGeometry width="50" height="50" relative="1" as="geometry">
            <mxPoint x="131" y="10.5" as="sourcePoint" />
            <mxPoint x="141" y="40.5" as="targetPoint" />
            <Array as="points">
              <mxPoint x="121" y="10.5" />
              <mxPoint x="121" y="40.5" />
            </Array>
          </mxGeometry>
        </mxCell>
        <mxCell id="EjHgjBkM1AAD6GTBpVpu-4" value="Related to" style="edgeLabel;html=1;align=center;verticalAlign=middle;resizable=0;points=[];fontSize=10;labelBackgroundColor=none;rounded=0;" parent="lDSgatOu9usaqV24lOmU-200" vertex="1" connectable="0">
          <mxGeometry x="-0.0068" relative="1" as="geometry">
            <mxPoint x="26" as="offset" />
          </mxGeometry>
        </mxCell>
        <mxCell id="lDSgatOu9usaqV24lOmU-193" value="" style="endArrow=none;html=1;rounded=0;" parent="EjHgjBkM1AAD6GTBpVpu-10" edge="1">
          <mxGeometry width="50" height="50" relative="1" as="geometry">
            <mxPoint x="13.003899999999993" y="43" as="sourcePoint" />
            <mxPoint x="37.04110900000001" y="43" as="targetPoint" />
          </mxGeometry>
        </mxCell>
        <mxCell id="EjHgjBkM1AAD6GTBpVpu-16" value="" style="group;rounded=1;arcSize=21;absoluteArcSize=0;" parent="1" vertex="1" connectable="0">
          <mxGeometry x="560" y="489" width="50.00000000000003" height="23" as="geometry" />
        </mxCell>
        <mxCell id="lDSgatOu9usaqV24lOmU-236" value="&lt;span style=&quot;font-size: 10px;&quot;&gt;Chosen&lt;br&gt;&lt;br&gt;&lt;/span&gt;" style="rounded=1;whiteSpace=wrap;html=1;arcSize=37;" parent="EjHgjBkM1AAD6GTBpVpu-16" vertex="1">
          <mxGeometry width="50" height="23" as="geometry" />
        </mxCell>
        <mxCell id="lDSgatOu9usaqV24lOmU-237" value="• quantity" style="text;html=1;strokeColor=none;fillColor=none;align=left;verticalAlign=middle;whiteSpace=wrap;rounded=0;fontSize=8;" parent="EjHgjBkM1AAD6GTBpVpu-16" vertex="1">
          <mxGeometry x="3.5000000000000284" y="12" width="41.5" height="8" as="geometry" />
        </mxCell>
        <mxCell id="lDSgatOu9usaqV24lOmU-238" value="" style="endArrow=none;html=1;rounded=0;entryX=1;entryY=0.5;entryDx=0;entryDy=0;exitX=0;exitY=0.5;exitDx=0;exitDy=0;" parent="EjHgjBkM1AAD6GTBpVpu-16" source="lDSgatOu9usaqV24lOmU-236" target="lDSgatOu9usaqV24lOmU-236" edge="1">
          <mxGeometry width="50" height="50" relative="1" as="geometry">
            <mxPoint x="377.83333333333326" y="278" as="sourcePoint" />
            <mxPoint x="431.9999999999999" y="228" as="targetPoint" />
          </mxGeometry>
        </mxCell>
        <mxCell id="lDSgatOu9usaqV24lOmU-92" value="" style="group;collapsible=0;rounded=0;" parent="1" vertex="1" connectable="0">
          <mxGeometry x="480" y="280" width="100" height="130" as="geometry" />
        </mxCell>
        <mxCell id="lDSgatOu9usaqV24lOmU-7" value="ORDER" style="swimlane;fontStyle=0;childLayout=stackLayout;horizontal=1;startSize=26;fillColor=none;horizontalStack=0;resizeParent=1;resizeParentMax=0;resizeLast=0;collapsible=0;marginBottom=0;whiteSpace=wrap;html=1;rounded=0;" parent="lDSgatOu9usaqV24lOmU-92" vertex="1">
          <mxGeometry width="100" height="130" as="geometry">
            <mxRectangle width="80" height="30" as="alternateBounds" />
          </mxGeometry>
        </mxCell>
        <mxCell id="lDSgatOu9usaqV24lOmU-8" value="• order_ID" style="text;strokeColor=none;fillColor=none;align=left;verticalAlign=top;spacingLeft=4;spacingRight=4;overflow=hidden;rotatable=0;points=[[0,0.5],[1,0.5]];portConstraint=eastwest;whiteSpace=wrap;html=1;fontSize=10;rounded=0;" parent="lDSgatOu9usaqV24lOmU-7" vertex="1">
          <mxGeometry y="26" width="100" height="26" as="geometry" />
        </mxCell>
        <mxCell id="lDSgatOu9usaqV24lOmU-10" value="• date" style="text;strokeColor=none;fillColor=none;align=left;verticalAlign=top;spacingLeft=4;spacingRight=4;overflow=hidden;rotatable=0;points=[[0,0.5],[1,0.5]];portConstraint=eastwest;whiteSpace=wrap;html=1;fontSize=10;rounded=0;" parent="lDSgatOu9usaqV24lOmU-7" vertex="1">
          <mxGeometry y="52" width="100" height="26" as="geometry" />
        </mxCell>
        <mxCell id="lDSgatOu9usaqV24lOmU-12" value="• shipping method" style="text;strokeColor=none;fillColor=none;align=left;verticalAlign=top;spacingLeft=4;spacingRight=4;overflow=hidden;rotatable=0;points=[[0,0.5],[1,0.5]];portConstraint=eastwest;whiteSpace=wrap;html=1;fontSize=10;rounded=0;" parent="lDSgatOu9usaqV24lOmU-7" vertex="1">
          <mxGeometry y="78" width="100" height="26" as="geometry" />
        </mxCell>
        <mxCell id="lDSgatOu9usaqV24lOmU-13" value="• payment_type" style="text;strokeColor=none;fillColor=none;align=left;verticalAlign=top;spacingLeft=4;spacingRight=4;overflow=hidden;rotatable=0;points=[[0,0.5],[1,0.5]];portConstraint=eastwest;whiteSpace=wrap;html=1;fontSize=10;rounded=0;" parent="lDSgatOu9usaqV24lOmU-7" vertex="1">
          <mxGeometry y="104" width="100" height="26" as="geometry" />
        </mxCell>
        <mxCell id="lDSgatOu9usaqV24lOmU-83" value="" style="endArrow=none;html=1;rounded=0;" parent="lDSgatOu9usaqV24lOmU-92" edge="1">
          <mxGeometry width="50" height="50" relative="1" as="geometry">
            <mxPoint x="13" y="46" as="sourcePoint" />
            <mxPoint x="55" y="46" as="targetPoint" />
          </mxGeometry>
        </mxCell>
        <mxCell id="lDSgatOu9usaqV24lOmU-220" value="" style="group;rounded=0;" parent="1" vertex="1" connectable="0">
          <mxGeometry x="497.5" y="210" width="65" height="23" as="geometry" />
        </mxCell>
        <mxCell id="lDSgatOu9usaqV24lOmU-214" value="&lt;span style=&quot;font-size: 10px;&quot;&gt;Added&lt;br&gt;&lt;br&gt;&lt;/span&gt;" style="rounded=1;whiteSpace=wrap;html=1;arcSize=40;" parent="lDSgatOu9usaqV24lOmU-220" vertex="1">
          <mxGeometry width="65" height="23" as="geometry" />
        </mxCell>
        <mxCell id="lDSgatOu9usaqV24lOmU-216" value="• quantity" style="text;html=1;strokeColor=none;fillColor=none;align=left;verticalAlign=middle;whiteSpace=wrap;rounded=0;fontSize=8;" parent="lDSgatOu9usaqV24lOmU-220" vertex="1">
          <mxGeometry x="6.5" y="13" width="52" height="8" as="geometry" />
        </mxCell>
        <mxCell id="lDSgatOu9usaqV24lOmU-215" value="" style="endArrow=none;html=1;rounded=0;entryX=1;entryY=0.5;entryDx=0;entryDy=0;exitX=0;exitY=0.5;exitDx=0;exitDy=0;" parent="lDSgatOu9usaqV24lOmU-220" source="lDSgatOu9usaqV24lOmU-214" target="lDSgatOu9usaqV24lOmU-214" edge="1">
          <mxGeometry width="50" height="50" relative="1" as="geometry">
            <mxPoint x="387.8333333333333" y="278" as="sourcePoint" />
            <mxPoint x="441.99999999999994" y="228" as="targetPoint" />
          </mxGeometry>
        </mxCell>
        <mxCell id="lDSgatOu9usaqV24lOmU-222" value="&lt;font style=&quot;font-size: 7px;&quot;&gt;0:N&lt;/font&gt;" style="text;html=1;strokeColor=none;fillColor=none;align=center;verticalAlign=middle;whiteSpace=wrap;rounded=0;" parent="1" vertex="1">
          <mxGeometry x="528.53" y="268" width="20" height="10" as="geometry" />
        </mxCell>
        <mxCell id="lDSgatOu9usaqV24lOmU-1" value="USER" style="swimlane;fontStyle=0;childLayout=stackLayout;horizontal=1;startSize=26;fillColor=none;horizontalStack=0;resizeParent=1;resizeParentMax=0;resizeLast=0;collapsible=0;marginBottom=0;whiteSpace=wrap;html=1;rounded=0;" parent="1" vertex="1">
          <mxGeometry x="310" y="240" width="60" height="78" as="geometry">
            <mxRectangle x="152" y="600" width="70" height="30" as="alternateBounds" />
          </mxGeometry>
        </mxCell>
        <mxCell id="lDSgatOu9usaqV24lOmU-2" value="• email" style="text;strokeColor=none;fillColor=none;align=left;verticalAlign=top;spacingLeft=4;spacingRight=4;overflow=hidden;rotatable=0;points=[[0,0.5],[1,0.5]];portConstraint=eastwest;whiteSpace=wrap;html=1;fontSize=10;rounded=0;" parent="lDSgatOu9usaqV24lOmU-1" vertex="1">
          <mxGeometry y="26" width="60" height="26" as="geometry" />
        </mxCell>
        <mxCell id="lDSgatOu9usaqV24lOmU-6" value="" style="endArrow=none;html=1;rounded=0;" parent="lDSgatOu9usaqV24lOmU-1" edge="1">
          <mxGeometry width="50" height="50" relative="1" as="geometry">
            <mxPoint x="12" y="44" as="sourcePoint" />
            <mxPoint x="36" y="44" as="targetPoint" />
          </mxGeometry>
        </mxCell>
        <mxCell id="lDSgatOu9usaqV24lOmU-3" value="• password" style="text;strokeColor=none;fillColor=none;align=left;verticalAlign=top;spacingLeft=4;spacingRight=4;overflow=hidden;rotatable=0;points=[[0,0.5],[1,0.5]];portConstraint=eastwest;whiteSpace=wrap;html=1;fontSize=10;rounded=0;" parent="lDSgatOu9usaqV24lOmU-1" vertex="1">
          <mxGeometry y="52" width="60" height="26" as="geometry" />
        </mxCell>
        <mxCell id="EjHgjBkM1AAD6GTBpVpu-24" value="&lt;font style=&quot;font-size: 7px;&quot;&gt;0:N&lt;/font&gt;" style="text;html=1;strokeColor=none;fillColor=none;align=center;verticalAlign=middle;whiteSpace=wrap;rounded=0;" parent="1" vertex="1">
          <mxGeometry x="717.03" y="158" width="20" height="10" as="geometry" />
        </mxCell>
        <mxCell id="EjHgjBkM1AAD6GTBpVpu-40" value="" style="endArrow=none;html=1;rounded=0;edgeStyle=orthogonalEdgeStyle;entryX=0.004;entryY=0.541;entryDx=0;entryDy=0;entryPerimeter=0;exitX=0.5;exitY=0;exitDx=0;exitDy=0;" parent="1" source="lDSgatOu9usaqV24lOmU-1" target="EjHgjBkM1AAD6GTBpVpu-27" edge="1">
          <mxGeometry width="50" height="50" relative="1" as="geometry">
            <mxPoint x="350" y="230" as="sourcePoint" />
            <mxPoint x="250" y="190" as="targetPoint" />
            <Array as="points">
              <mxPoint x="340" y="200" />
            </Array>
          </mxGeometry>
        </mxCell>
        <mxCell id="EjHgjBkM1AAD6GTBpVpu-43" value="&lt;font style=&quot;font-size: 10px;&quot;&gt;Made by&lt;/font&gt;" style="edgeLabel;html=1;align=center;verticalAlign=middle;resizable=0;points=[];labelBackgroundColor=none;rounded=0;" parent="EjHgjBkM1AAD6GTBpVpu-40" vertex="1" connectable="0">
          <mxGeometry x="-0.3083" relative="1" as="geometry">
            <mxPoint x="17" y="-17" as="offset" />
          </mxGeometry>
        </mxCell>
        <mxCell id="EjHgjBkM1AAD6GTBpVpu-41" value="&lt;font style=&quot;font-size: 7px;&quot;&gt;0:1&lt;/font&gt;" style="text;html=1;strokeColor=none;fillColor=none;align=center;verticalAlign=middle;whiteSpace=wrap;rounded=0;" parent="1" vertex="1">
          <mxGeometry x="338" y="228" width="20" height="10" as="geometry" />
        </mxCell>
        <mxCell id="EjHgjBkM1AAD6GTBpVpu-42" value="&lt;font style=&quot;font-size: 7px;&quot;&gt;0:N&lt;/font&gt;" style="text;html=1;strokeColor=none;fillColor=none;align=center;verticalAlign=middle;whiteSpace=wrap;rounded=0;" parent="1" vertex="1">
          <mxGeometry x="372" y="201" width="20" height="10" as="geometry" />
        </mxCell>
        <mxCell id="EjHgjBkM1AAD6GTBpVpu-44" value="" style="endArrow=none;html=1;rounded=0;edgeStyle=orthogonalEdgeStyle;entryX=-0.003;entryY=0.183;entryDx=0;entryDy=0;entryPerimeter=0;exitX=0.998;exitY=0.184;exitDx=0;exitDy=0;exitPerimeter=0;" parent="1" source="EjHgjBkM1AAD6GTBpVpu-26" target="lDSgatOu9usaqV24lOmU-188" edge="1">
          <mxGeometry width="50" height="50" relative="1" as="geometry">
            <mxPoint x="380" y="200" as="sourcePoint" />
            <mxPoint x="542" y="180" as="targetPoint" />
            <Array as="points" />
          </mxGeometry>
        </mxCell>
        <mxCell id="EjHgjBkM1AAD6GTBpVpu-47" value="Resulted with" style="edgeLabel;html=1;align=center;verticalAlign=middle;resizable=0;points=[];labelBackgroundColor=none;fontSize=10;rounded=0;" parent="EjHgjBkM1AAD6GTBpVpu-44" vertex="1" connectable="0">
          <mxGeometry x="0.1174" y="1" relative="1" as="geometry">
            <mxPoint x="-14" y="-7" as="offset" />
          </mxGeometry>
        </mxCell>
        <mxCell id="EjHgjBkM1AAD6GTBpVpu-45" value="&lt;font style=&quot;font-size: 7px;&quot;&gt;0:N&lt;/font&gt;" style="text;html=1;strokeColor=none;fillColor=none;align=center;verticalAlign=middle;whiteSpace=wrap;rounded=0;" parent="1" vertex="1">
          <mxGeometry x="460" y="286.5" width="20" height="10" as="geometry" />
        </mxCell>
        <mxCell id="EjHgjBkM1AAD6GTBpVpu-46" value="&lt;font style=&quot;font-size: 7px;&quot;&gt;0:N&lt;/font&gt;" style="text;html=1;strokeColor=none;fillColor=none;align=center;verticalAlign=middle;whiteSpace=wrap;rounded=0;" parent="1" vertex="1">
          <mxGeometry x="601" y="168" width="20" height="10" as="geometry" />
        </mxCell>
        <mxCell id="OaldTgsXg-8UTPiW4Anr-9" value="" style="endArrow=none;html=1;rounded=0;edgeStyle=orthogonalEdgeStyle;entryX=1;entryY=0.5;entryDx=0;entryDy=0;exitX=0.5;exitY=0;exitDx=0;exitDy=0;" parent="1" source="TbPYrLYdabiimFpBmDX--8" target="lDSgatOu9usaqV24lOmU-195" edge="1">
          <mxGeometry width="50" height="50" relative="1" as="geometry">
            <mxPoint x="780" y="250" as="sourcePoint" />
            <mxPoint x="690" y="270" as="targetPoint" />
            <Array as="points">
              <mxPoint x="741" y="251" />
            </Array>
          </mxGeometry>
        </mxCell>
        <mxCell id="OaldTgsXg-8UTPiW4Anr-10" value="&lt;font style=&quot;font-size: 7px;&quot;&gt;0:N&lt;/font&gt;" style="text;html=1;strokeColor=none;fillColor=none;align=center;verticalAlign=middle;whiteSpace=wrap;rounded=0;" parent="1" vertex="1">
          <mxGeometry x="721.03" y="317.87" width="20" height="10" as="geometry" />
        </mxCell>
        <mxCell id="OaldTgsXg-8UTPiW4Anr-11" value="&lt;font style=&quot;font-size: 7px;&quot;&gt;2:N&lt;/font&gt;" style="text;html=1;strokeColor=none;fillColor=none;align=center;verticalAlign=middle;whiteSpace=wrap;rounded=0;" parent="1" vertex="1">
          <mxGeometry x="718" y="238.5" width="20" height="10" as="geometry" />
        </mxCell>
        <mxCell id="OaldTgsXg-8UTPiW4Anr-25" value="&lt;font style=&quot;font-size: 7px;&quot;&gt;0:N&lt;/font&gt;" style="text;html=1;strokeColor=none;fillColor=none;align=center;verticalAlign=middle;whiteSpace=wrap;rounded=0;" parent="1" vertex="1">
          <mxGeometry x="461.5" y="167" width="20" height="10" as="geometry" />
        </mxCell>
        <mxCell id="OaldTgsXg-8UTPiW4Anr-26" value="&lt;font style=&quot;font-size: 7px;&quot;&gt;1:1&lt;/font&gt;" style="text;html=1;strokeColor=none;fillColor=none;align=center;verticalAlign=middle;whiteSpace=wrap;rounded=0;" parent="1" vertex="1">
          <mxGeometry x="389" y="387" width="20" height="10" as="geometry" />
        </mxCell>
        <mxCell id="OaldTgsXg-8UTPiW4Anr-27" value="&lt;font style=&quot;font-size: 7px;&quot;&gt;0:1&lt;/font&gt;" style="text;html=1;strokeColor=none;fillColor=none;align=center;verticalAlign=middle;whiteSpace=wrap;rounded=0;" parent="1" vertex="1">
          <mxGeometry x="369" y="286.5" width="20" height="10" as="geometry" />
        </mxCell>
        <mxCell id="OaldTgsXg-8UTPiW4Anr-28" value="" style="endArrow=none;html=1;rounded=0;edgeStyle=orthogonalEdgeStyle;exitX=0.334;exitY=0.997;exitDx=0;exitDy=0;exitPerimeter=0;entryX=0.25;entryY=0;entryDx=0;entryDy=0;" parent="1" source="lDSgatOu9usaqV24lOmU-3" target="lDSgatOu9usaqV24lOmU-59" edge="1">
          <mxGeometry width="50" height="50" relative="1" as="geometry">
            <mxPoint x="310" y="340" as="sourcePoint" />
            <mxPoint x="330" y="380" as="targetPoint" />
            <Array as="points">
              <mxPoint x="330" y="370" />
              <mxPoint x="330" y="370" />
            </Array>
          </mxGeometry>
        </mxCell>
        <mxCell id="OaldTgsXg-8UTPiW4Anr-31" value="Details of" style="edgeLabel;html=1;align=center;verticalAlign=middle;resizable=0;points=[];labelBackgroundColor=none;fontSize=10;" parent="OaldTgsXg-8UTPiW4Anr-28" vertex="1" connectable="0">
          <mxGeometry x="-0.0817" y="1" relative="1" as="geometry">
            <mxPoint x="22" y="6" as="offset" />
          </mxGeometry>
        </mxCell>
        <mxCell id="OaldTgsXg-8UTPiW4Anr-29" value="&lt;font style=&quot;font-size: 7px;&quot;&gt;0:N&lt;/font&gt;" style="text;html=1;strokeColor=none;fillColor=none;align=center;verticalAlign=middle;whiteSpace=wrap;rounded=0;" parent="1" vertex="1">
          <mxGeometry x="329" y="375" width="20" height="10" as="geometry" />
        </mxCell>
        <mxCell id="OaldTgsXg-8UTPiW4Anr-30" value="&lt;font style=&quot;font-size: 7px;&quot;&gt;0:N&lt;/font&gt;" style="text;html=1;strokeColor=none;fillColor=none;align=center;verticalAlign=middle;whiteSpace=wrap;rounded=0;" parent="1" vertex="1">
          <mxGeometry x="329" y="317.87" width="20" height="10" as="geometry" />
        </mxCell>
        <mxCell id="_Cx1qPkDU72B1DqgVCxw-10" style="edgeStyle=orthogonalEdgeStyle;rounded=0;orthogonalLoop=1;jettySize=auto;html=1;endArrow=none;endFill=0;exitX=0;exitY=0.621;exitDx=0;exitDy=0;entryX=0.998;entryY=0.093;entryDx=0;entryDy=0;entryPerimeter=0;exitPerimeter=0;" parent="1" source="lDSgatOu9usaqV24lOmU-13" target="lDSgatOu9usaqV24lOmU-59" edge="1">
          <mxGeometry relative="1" as="geometry">
            <mxPoint x="420.4999999999999" y="356.37" as="sourcePoint" />
            <mxPoint x="410" y="400" as="targetPoint" />
            <Array as="points" />
          </mxGeometry>
        </mxCell>
        <mxCell id="TbPYrLYdabiimFpBmDX--18" value="Addresed to" style="edgeLabel;html=1;align=center;verticalAlign=middle;resizable=0;points=[];labelBackgroundColor=none;" parent="_Cx1qPkDU72B1DqgVCxw-10" vertex="1" connectable="0">
          <mxGeometry x="0.0112" y="-1" relative="1" as="geometry">
            <mxPoint y="9" as="offset" />
          </mxGeometry>
        </mxCell>
        <mxCell id="_Cx1qPkDU72B1DqgVCxw-5" value="" style="group" parent="1" vertex="1" connectable="0">
          <mxGeometry x="392.5" y="159.5" width="70" height="104" as="geometry" />
        </mxCell>
        <mxCell id="EjHgjBkM1AAD6GTBpVpu-26" value="SEARCH" style="swimlane;fontStyle=0;childLayout=stackLayout;horizontal=1;startSize=26;fillColor=none;horizontalStack=0;resizeParent=1;resizeParentMax=0;resizeLast=0;collapsible=0;marginBottom=0;whiteSpace=wrap;html=1;rounded=0;" parent="_Cx1qPkDU72B1DqgVCxw-5" vertex="1">
          <mxGeometry width="70" height="104" as="geometry">
            <mxRectangle x="152" y="600" width="70" height="30" as="alternateBounds" />
          </mxGeometry>
        </mxCell>
        <mxCell id="EjHgjBkM1AAD6GTBpVpu-27" value="• search DT" style="text;strokeColor=none;fillColor=none;align=left;verticalAlign=top;spacingLeft=4;spacingRight=4;overflow=hidden;rotatable=0;points=[[0,0.5],[1,0.5]];portConstraint=eastwest;whiteSpace=wrap;html=1;fontSize=10;rounded=0;" parent="EjHgjBkM1AAD6GTBpVpu-26" vertex="1">
          <mxGeometry y="26" width="70" height="26" as="geometry" />
        </mxCell>
        <mxCell id="EjHgjBkM1AAD6GTBpVpu-48" value="• IP address" style="text;strokeColor=none;fillColor=none;align=left;verticalAlign=top;spacingLeft=4;spacingRight=4;overflow=hidden;rotatable=0;points=[[0,0.5],[1,0.5]];portConstraint=eastwest;whiteSpace=wrap;html=1;fontSize=10;rounded=0;" parent="EjHgjBkM1AAD6GTBpVpu-26" vertex="1">
          <mxGeometry y="52" width="70" height="26" as="geometry" />
        </mxCell>
        <mxCell id="_Cx1qPkDU72B1DqgVCxw-4" value="• search text" style="text;strokeColor=none;fillColor=none;align=left;verticalAlign=top;spacingLeft=4;spacingRight=4;overflow=hidden;rotatable=0;points=[[0,0.5],[1,0.5]];portConstraint=eastwest;whiteSpace=wrap;html=1;fontSize=10;rounded=0;" parent="EjHgjBkM1AAD6GTBpVpu-26" vertex="1">
          <mxGeometry y="78" width="70" height="26" as="geometry" />
        </mxCell>
        <mxCell id="EjHgjBkM1AAD6GTBpVpu-28" value="" style="endArrow=none;html=1;rounded=0;" parent="EjHgjBkM1AAD6GTBpVpu-26" edge="1">
          <mxGeometry width="50" height="50" relative="1" as="geometry">
            <mxPoint x="12" y="44" as="sourcePoint" />
            <mxPoint x="58" y="44" as="targetPoint" />
          </mxGeometry>
        </mxCell>
        <mxCell id="EjHgjBkM1AAD6GTBpVpu-49" value="" style="endArrow=none;html=1;rounded=0;" parent="_Cx1qPkDU72B1DqgVCxw-5" edge="1">
          <mxGeometry width="50" height="50" relative="1" as="geometry">
            <mxPoint x="13" y="70" as="sourcePoint" />
            <mxPoint x="59" y="70" as="targetPoint" />
          </mxGeometry>
        </mxCell>
        <mxCell id="_Cx1qPkDU72B1DqgVCxw-13" style="edgeStyle=orthogonalEdgeStyle;rounded=0;orthogonalLoop=1;jettySize=auto;html=1;entryX=1.006;entryY=0.287;entryDx=0;entryDy=0;entryPerimeter=0;endArrow=none;endFill=0;exitX=0.001;exitY=0.15;exitDx=0;exitDy=0;exitPerimeter=0;" parent="1" source="lDSgatOu9usaqV24lOmU-7" target="lDSgatOu9usaqV24lOmU-3" edge="1">
          <mxGeometry relative="1" as="geometry">
            <mxPoint x="400" y="320" as="sourcePoint" />
          </mxGeometry>
        </mxCell>
        <mxCell id="TbPYrLYdabiimFpBmDX--14" value="Ordered by" style="edgeLabel;html=1;align=center;verticalAlign=middle;resizable=0;points=[];labelBackgroundColor=none;" parent="_Cx1qPkDU72B1DqgVCxw-13" vertex="1" connectable="0">
          <mxGeometry x="-0.0817" y="4" relative="1" as="geometry">
            <mxPoint x="-5" y="-12" as="offset" />
          </mxGeometry>
        </mxCell>
        <mxCell id="_Cx1qPkDU72B1DqgVCxw-16" style="edgeStyle=orthogonalEdgeStyle;rounded=0;orthogonalLoop=1;jettySize=auto;html=1;exitX=0;exitY=0.5;exitDx=0;exitDy=0;endArrow=none;endFill=0;entryX=-0.001;entryY=0.9;entryDx=0;entryDy=0;entryPerimeter=0;" parent="1" source="OaldTgsXg-8UTPiW4Anr-2" target="lDSgatOu9usaqV24lOmU-208" edge="1">
          <mxGeometry relative="1" as="geometry">
            <mxPoint x="670" y="350" as="targetPoint" />
            <Array as="points">
              <mxPoint x="680" y="350" />
            </Array>
          </mxGeometry>
        </mxCell>
        <mxCell id="OaldTgsXg-8UTPiW4Anr-2" value="BUNDLE" style="swimlane;fontStyle=0;childLayout=stackLayout;horizontal=1;startSize=26;fillColor=none;horizontalStack=0;resizeParent=1;resizeParentMax=0;resizeLast=0;collapsible=0;marginBottom=0;whiteSpace=wrap;html=1;rounded=0;" parent="1" vertex="1">
          <mxGeometry x="690.03" y="329.87" width="59.97" height="40.13" as="geometry">
            <mxRectangle x="690.03" y="319.87" width="90" height="30" as="alternateBounds" />
          </mxGeometry>
        </mxCell>
        <mxCell id="TbPYrLYdabiimFpBmDX--7" value="" style="group;rounded=0;" parent="1" vertex="1" connectable="0">
          <mxGeometry x="708" y="279" width="65" height="23" as="geometry" />
        </mxCell>
        <mxCell id="TbPYrLYdabiimFpBmDX--8" value="&lt;span style=&quot;font-size: 10px;&quot;&gt;Includes&lt;br&gt;&lt;br&gt;&lt;/span&gt;" style="rounded=1;whiteSpace=wrap;html=1;arcSize=40;" parent="TbPYrLYdabiimFpBmDX--7" vertex="1">
          <mxGeometry width="65" height="23" as="geometry" />
        </mxCell>
        <mxCell id="TbPYrLYdabiimFpBmDX--9" value="• quantity" style="text;html=1;strokeColor=none;fillColor=none;align=left;verticalAlign=middle;whiteSpace=wrap;rounded=0;fontSize=8;" parent="TbPYrLYdabiimFpBmDX--7" vertex="1">
          <mxGeometry x="6.5" y="13" width="52" height="8" as="geometry" />
        </mxCell>
        <mxCell id="TbPYrLYdabiimFpBmDX--10" value="" style="endArrow=none;html=1;rounded=0;entryX=1;entryY=0.5;entryDx=0;entryDy=0;exitX=0;exitY=0.5;exitDx=0;exitDy=0;" parent="TbPYrLYdabiimFpBmDX--7" source="TbPYrLYdabiimFpBmDX--8" target="TbPYrLYdabiimFpBmDX--8" edge="1">
          <mxGeometry width="50" height="50" relative="1" as="geometry">
            <mxPoint x="387.8333333333333" y="278" as="sourcePoint" />
            <mxPoint x="441.99999999999994" y="228" as="targetPoint" />
          </mxGeometry>
        </mxCell>
        <mxCell id="TbPYrLYdabiimFpBmDX--12" style="edgeStyle=orthogonalEdgeStyle;rounded=0;orthogonalLoop=1;jettySize=auto;html=1;endArrow=none;endFill=0;entryX=0.832;entryY=0.003;entryDx=0;entryDy=0;entryPerimeter=0;exitX=0.491;exitY=1.003;exitDx=0;exitDy=0;exitPerimeter=0;" parent="1" source="TbPYrLYdabiimFpBmDX--8" target="OaldTgsXg-8UTPiW4Anr-2" edge="1">
          <mxGeometry relative="1" as="geometry">
            <mxPoint x="740" y="310" as="sourcePoint" />
            <mxPoint x="730" y="320" as="targetPoint" />
            <Array as="points" />
          </mxGeometry>
        </mxCell>
        <mxCell id="TbPYrLYdabiimFpBmDX--13" value="&lt;font style=&quot;font-size: 7px;&quot;&gt;0:N&lt;/font&gt;" style="text;html=1;strokeColor=none;fillColor=none;align=center;verticalAlign=middle;whiteSpace=wrap;rounded=0;" parent="1" vertex="1">
          <mxGeometry x="459.5" y="387" width="20" height="10" as="geometry" />
        </mxCell>
        <mxCell id="lDSgatOu9usaqV24lOmU-71" value="" style="endArrow=none;html=1;rounded=0;" parent="1" edge="1">
          <mxGeometry width="50" height="50" relative="1" as="geometry">
            <mxPoint x="322.55555555555554" y="431" as="sourcePoint" />
            <mxPoint x="348" y="431" as="targetPoint" />
          </mxGeometry>
        </mxCell>
        <mxCell id="OaldTgsXg-8UTPiW4Anr-34" value="" style="endArrow=none;html=1;rounded=0;" parent="1" edge="1">
          <mxGeometry width="50" height="50" relative="1" as="geometry">
            <mxPoint x="322.55555555555554" y="457" as="sourcePoint" />
            <mxPoint x="358" y="457" as="targetPoint" />
          </mxGeometry>
        </mxCell>
        <mxCell id="lDSgatOu9usaqV24lOmU-59" value="DETAILS" style="swimlane;fontStyle=0;childLayout=stackLayout;horizontal=1;startSize=26;fillColor=none;horizontalStack=0;resizeParent=1;resizeParentMax=0;resizeLast=0;collapsible=0;marginBottom=0;whiteSpace=wrap;html=1;rounded=0;" parent="1" vertex="1">
          <mxGeometry x="310" y="388" width="80" height="130" as="geometry">
            <mxRectangle width="100" height="30" as="alternateBounds" />
          </mxGeometry>
        </mxCell>
        <mxCell id="lDSgatOu9usaqV24lOmU-60" value="• name" style="text;strokeColor=none;fillColor=none;align=left;verticalAlign=top;spacingLeft=4;spacingRight=4;overflow=hidden;rotatable=0;points=[[0,0.5],[1,0.5]];portConstraint=eastwest;whiteSpace=wrap;html=1;fontSize=10;rounded=0;" parent="lDSgatOu9usaqV24lOmU-59" vertex="1">
          <mxGeometry y="26" width="80" height="26" as="geometry" />
        </mxCell>
        <mxCell id="lDSgatOu9usaqV24lOmU-62" value="• address" style="text;strokeColor=none;fillColor=none;align=left;verticalAlign=top;spacingLeft=4;spacingRight=4;overflow=hidden;rotatable=0;points=[[0,0.5],[1,0.5]];portConstraint=eastwest;whiteSpace=wrap;html=1;fontSize=10;rounded=0;" parent="lDSgatOu9usaqV24lOmU-59" vertex="1">
          <mxGeometry y="52" width="80" height="26" as="geometry" />
        </mxCell>
        <mxCell id="TbPYrLYdabiimFpBmDX--4" value="• company" style="text;strokeColor=none;fillColor=none;align=left;verticalAlign=top;spacingLeft=4;spacingRight=4;overflow=hidden;rotatable=0;points=[[0,0.5],[1,0.5]];portConstraint=eastwest;whiteSpace=wrap;html=1;fontSize=10;rounded=0;" parent="lDSgatOu9usaqV24lOmU-59" vertex="1">
          <mxGeometry y="78" width="80" height="26" as="geometry" />
        </mxCell>
        <mxCell id="lDSgatOu9usaqV24lOmU-69" value="• phone #" style="text;strokeColor=none;fillColor=none;align=left;verticalAlign=top;spacingLeft=4;spacingRight=4;overflow=hidden;rotatable=0;points=[[0,0.5],[1,0.5]];portConstraint=eastwest;whiteSpace=wrap;html=1;fontSize=10;rounded=0;" parent="lDSgatOu9usaqV24lOmU-59" vertex="1">
          <mxGeometry y="104" width="80" height="26" as="geometry" />
        </mxCell>
      </root>
    </mxGraphModel>
  </diagram>
</mxfile>
